# xmcd
#
# Track frame offsets: 
#        187
#        18525
#        36695
#        56775
#        78220
#        99555
#        121795
#        142100
#        160347
#        179692
#        204275
#        223357
#
# Disc length: 3243 seconds
#
# Revision: 4
# Processed by: cddbd v1.5.2PL0 Copyright (c) Steve Scherf et al.
# Submitted via: ExactAudioCopy v1.1
#
DISCID=b50ca90c
DTITLE=Boyz II Men - The Remix Collection
DYEAR=1995
DGENRE=R&B
TTITLE0=Under Preassure (Dallas Austin Mix)
TTITLE1=Vibin (The New Flava Mix)
TTITLE2=I Remember
TTITLE3=Water Runs Dry (Strat Mix)
TTITLE4=U Know (Dallas Austin Mix)
TTITLE5=I'll Make Love To You (''Make Love To You'' Version)
TTITLE6=Uhh Ahh (Dedication Mix)
TTITLE7=Motownphilly (Quiet Storm Version)
TTITLE8=On Bended Knee (Human Rhythm Mix)
TTITLE9=Brokenhearted (Acoustic Remix) (duet with Brandy and Wanya Morri
TTITLE9=s)
TTITLE10=Thank You (Moog Flava Mix)
TTITLE11=Sympin' (Remix)
EXTD=
EXTT0=Countdown, Dallas Austin Mix,\nSympin' Interlude\n
EXTT1=The New Flava\nFeaturing Treach, Craig Mack, \nBusta Rhymes, Met
EXTT1=hod Man.
EXTT2=Motownophilly Interlude\n
EXTT3=Strat Mix
EXTT4=Dalla Austin Mix
EXTT5=Make Love To You Version\nMotownphilly Interlude
EXTT6=Dedication Mix
EXTT7=Quiet Storm Version\n
EXTT8=Human Rhythm Mix
EXTT9=Accoustic Remix
EXTT10=Moog Flava
EXTT11=Dallas Austin Mix
PLAYORDER=
